<svg xmlns="http://www.w3.org/2000/svg" version="1.1" xmlns:xlink="http://www.w3.org/1999/xlink" xmlns:svgjs="http://svgjs.dev/svgjs" width="1000" height="335" viewBox="0 0 1000 335"><g transform="matrix(1,0,0,1,-0.6060606060606233,0.058891077297630545)"><svg viewBox="0 0 396 133" data-background-color="#ffffff" preserveAspectRatio="xMidYMid meet" height="335" width="1000" xmlns="http://www.w3.org/2000/svg" xmlns:xlink="http://www.w3.org/1999/xlink"><defs></defs><g id="tight-bounds" transform="matrix(1,0,0,1,0.2400000000000091,-0.023380636658458798)"><svg viewBox="0 0 395.52 133.04676127331695" height="133.04676127331695" width="395.52"><g><svg viewBox="0 0 395.52 133.04676127331695" height="133.04676127331695" width="395.52"><g><svg viewBox="0 0 395.52 133.04676127331695" height="133.04676127331695" width="395.52"><g transform="matrix(1,0,0,1,0,73.8504914981296)"><svg viewBox="0 0 395.52 59.196269775187346" height="59.196269775187346" width="395.52"><g><svg viewBox="0 0 395.52 59.196269775187346" height="59.196269775187346" width="395.52"><g><svg viewBox="0 0 395.52 59.196269775187346" height="59.196269775187346" width="395.52"><g transform="matrix(1,0,0,1,0,0)"><svg width="395.52" viewBox="1.05 -35.1 240.17 35.95" height="59.196269775187346" data-palette-color="#666666"><path d="M18.25 0.85L18.25 0.85Q13.4 0.85 9.5-1.15 5.6-3.15 3.33-7.05 1.05-10.95 1.05-16.55L1.05-16.55Q1.05-20.75 2.43-24 3.8-27.25 6.23-29.48 8.65-31.7 11.8-32.83 14.95-33.95 18.5-33.95L18.5-33.95Q21.25-33.95 23.65-33.33 26.05-32.7 28.25-31.5L28.25-31.5 28.45-24.95 27.1-24.95 25-28.9Q24.5-29.9 23.93-30.7 23.35-31.5 22.45-31.85L22.45-31.85Q21.2-32.45 19.5-32.45L19.5-32.45Q16.55-32.45 14.13-30.95 11.7-29.45 10.25-25.98 8.8-22.5 8.8-16.5L8.8-16.5Q8.8-10.55 10.18-7.05 11.55-3.55 13.9-2.08 16.25-0.6 19.2-0.6L19.2-0.6Q20.55-0.6 21.4-0.8 22.25-1 23.1-1.35L23.1-1.35Q24.1-1.75 24.65-2.53 25.2-3.3 25.6-4.3L25.6-4.3 27.5-8.85 28.85-8.85 28.65-1.65Q26.5-0.45 23.9 0.2 21.3 0.85 18.25 0.85ZM48.1 0.2L44.55 0.2 33.85-29.3Q33.2-31.15 31.3-31.7L31.3-31.7 30.2-32 30.2-33.05 44.05-33.05 44.05-32.05 42.65-31.7Q41.5-31.4 41.37-30.65 41.25-29.9 41.65-28.75L41.65-28.75 48.85-7.4 56.1-28.75Q56.5-29.9 56.47-30.65 56.45-31.4 55.3-31.7L55.3-31.7 54.1-32.05 54.1-33.05 61.55-33.05 61.55-32 60.3-31.7Q59.25-31.45 58.82-30.85 58.4-30.25 58.05-29.2L58.05-29.2 48.1 0.2ZM75.5 0L62.95 0 62.95-1.05 63.75-1.3Q64.8-1.7 65.17-2.35 65.55-3 65.55-4.1L65.55-4.1Q65.59-6.95 65.59-9.83 65.59-12.7 65.59-15.6L65.59-15.6 65.59-17.4Q65.59-20.3 65.57-23.18 65.55-26.05 65.55-28.95L65.55-28.95Q65.55-30.15 65.2-30.78 64.84-31.4 63.75-31.75L63.75-31.75 62.95-32 62.95-33.05 77.05-33.05Q83.05-33.05 85.75-30.83 88.45-28.6 88.45-25.2L88.45-25.2Q88.45-22.6 86.55-20.53 84.65-18.45 79.9-17.55L79.9-17.55Q85.4-16.95 87.84-14.7 90.3-12.45 90.3-9.2L90.3-9.2Q90.3-7.6 89.59-5.98 88.9-4.35 87.22-3 85.55-1.65 82.7-0.83 79.84 0 75.5 0L75.5 0ZM72.7-31.6L72.7-17.9 75.05-17.9Q78.45-17.9 79.97-19.43 81.5-20.95 81.5-24.65L81.5-24.65Q81.5-28.5 80.09-30.05 78.7-31.6 75.7-31.6L75.7-31.6 72.7-31.6ZM72.7-16.45L72.7-1.45 75.45-1.45Q79.2-1.45 81.05-3.3 82.9-5.15 82.9-9.25L82.9-9.25Q82.9-13.2 81.12-14.83 79.34-16.45 75.3-16.45L75.3-16.45 72.7-16.45ZM116.99-11.6L104.49-11.6 104.49-13.7 116.99-13.7 116.99-11.6ZM143.64 0L131.14 0 131.14-1.05 132.14-1.35Q133.14-1.7 133.46-2.27 133.79-2.85 133.79-3.9L133.79-3.9 133.79-29.15Q133.79-30.2 133.46-30.78 133.14-31.35 132.14-31.7L132.14-31.7 131.14-32 131.14-33.05 143.64-33.05 143.64-32 142.64-31.7Q141.69-31.35 141.34-30.78 140.99-30.2 140.99-29.15L140.99-29.15 140.99-3.9Q140.99-2.85 141.34-2.27 141.69-1.7 142.64-1.35L142.64-1.35 143.64-1.05 143.64 0ZM157.28 0L145.83 0 145.83-0.95 146.63-1.15Q148.28-1.65 148.28-3.6L148.28-3.6 148.28-18.35Q148.23-19.4 147.93-19.98 147.63-20.55 146.63-20.75L146.63-20.75 145.83-20.95 145.83-21.85 153.93-24.75 154.53-24.2 154.88-21.1Q156.68-22.7 158.91-23.73 161.13-24.75 163.28-24.75L163.28-24.75Q166.58-24.75 168.36-22.95 170.13-21.15 170.13-17.45L170.13-17.45 170.13-3.55Q170.13-1.6 171.93-1.1L171.93-1.1 172.48-0.95 172.48 0 160.98 0 160.98-0.95 161.73-1.15Q163.38-1.7 163.38-3.6L163.38-3.6 163.38-18.45Q163.38-20.2 162.63-21 161.88-21.8 160.13-21.8L160.13-21.8Q157.68-21.8 155.03-19.65L155.03-19.65 155.03-3.55Q155.03-1.6 156.78-1.1L156.78-1.1 157.28-0.95 157.28 0ZM185.03 0.7L185.03 0.7Q182.08 0.7 179.73-0.63 177.38-1.95 176.06-4.73 174.73-7.5 174.73-11.8L174.73-11.8Q174.73-16.1 176.23-18.98 177.73-21.85 180.23-23.3 182.73-24.75 185.73-24.75L185.73-24.75Q187.53-24.75 189.18-24.33 190.83-23.9 192.08-23.05L192.08-23.05 192.08-29.55Q192.08-30.6 191.76-31.08 191.43-31.55 190.43-31.8L190.43-31.8 189.43-32 189.43-32.95 198.13-35.1 198.78-34.65 198.58-27.6 198.58-3.55Q198.58-2.6 198.93-1.98 199.28-1.35 200.18-1.1L200.18-1.1 200.73-0.95 200.73 0 192.43 0.55 191.98-1.55Q190.63-0.5 188.88 0.1 187.13 0.7 185.03 0.7ZM187.78-1.6L187.78-1.6Q189.93-1.6 191.83-3L191.83-3 191.83-21.6Q189.98-22.75 187.83-22.75L187.83-22.75Q185.38-22.75 183.63-20.18 181.88-17.6 181.88-11.9L181.88-11.9Q181.88-6.2 183.53-3.9 185.18-1.6 187.78-1.6ZM208.78-27.5L208.78-27.5Q207.13-27.5 205.98-28.55 204.83-29.6 204.83-31.2L204.83-31.2Q204.83-32.85 205.98-33.88 207.13-34.9 208.78-34.9L208.78-34.9Q210.43-34.9 211.58-33.88 212.73-32.85 212.73-31.2L212.73-31.2Q212.73-29.6 211.58-28.55 210.43-27.5 208.78-27.5ZM214.48 0L203.03 0 203.03-0.95 203.78-1.15Q204.78-1.45 205.13-2.05 205.48-2.65 205.53-3.65L205.53-3.65 205.53-12.85Q205.53-14.4 205.53-15.73 205.53-17.05 205.48-18.45L205.48-18.45Q205.48-19.45 205.1-20.03 204.73-20.6 203.73-20.8L203.73-20.8 203.03-20.95 203.03-21.85 211.78-24.75 212.38-24.2 212.23-17.1 212.23-3.6Q212.23-2.6 212.6-2 212.98-1.4 213.93-1.1L213.93-1.1 214.48-0.95 214.48 0ZM223.93 0.7L223.93 0.7Q221.07 0.7 219.1-0.93 217.13-2.55 217.13-5.6L217.13-5.6Q217.13-8 219.45-10.03 221.78-12.05 226.78-13L226.78-13Q227.63-13.2 228.75-13.38 229.88-13.55 230.97-13.75L230.97-13.75 230.97-17.3Q230.97-20.7 230.13-22 229.28-23.3 227.43-23.3L227.43-23.3 227.28-23.3Q226.13-23.3 225.45-22.58 224.78-21.85 224.57-20.2L224.57-20.2 224.43-19.55Q224.28-17.55 223.38-16.63 222.47-15.7 221.13-15.7L221.13-15.7Q219.88-15.7 219.05-16.48 218.22-17.25 218.22-18.5L218.22-18.5Q218.22-20.55 219.63-21.95 221.03-23.35 223.35-24.05 225.68-24.75 228.38-24.75L228.38-24.75Q232.82-24.75 235.18-22.6 237.53-20.45 237.53-15.6L237.53-15.6 237.53-4.45Q237.53-2.3 239.57-2.3L239.57-2.3 240.72-2.3 241.22-1.75Q240.32-0.6 239.22 0.03 238.13 0.65 236.22 0.65L236.22 0.65Q234.07 0.65 232.8-0.38 231.53-1.4 231.13-3.1L231.13-3.1Q229.53-1.4 227.97-0.35 226.43 0.7 223.93 0.7ZM226.82-2.5L226.82-2.5Q227.82-2.5 228.72-2.95 229.63-3.4 230.97-4.45L230.97-4.45 230.97-12.45Q229.68-12.25 228.32-11.95L228.32-11.95Q226.18-11.45 224.85-10.1 223.53-8.75 223.53-6.45L223.53-6.45Q223.53-4.45 224.45-3.48 225.38-2.5 226.82-2.5Z" opacity="1" transform="matrix(1,0,0,1,0,0)" fill="#666666" class="undefined-text-0" data-fill-palette-color="primary" id="text-0"></path></svg></g></svg></g></svg></g></svg></g><g transform="matrix(1,0,0,1,75.54431999999998,0)"><svg viewBox="0 0 244.43136 59.87567291468247" height="59.87567291468247" width="244.43136"><g><svg xmlns="http://www.w3.org/2000/svg" xmlns:xlink="http://www.w3.org/1999/xlink" version="1.0" x="8" y="0" viewBox="5.062 38.221 89.876 23.558000000000007" enable-background="new 0 0 100 100" xml:space="preserve" height="59.87567291468247" width="228.43136" class="icon-icon-0" data-fill-palette-color="accent" id="icon-0"><polygon fill="#e5261f" points="94.938,46.021 85.172,46.021 85.172,43.973 89.941,42.292 94.938,43.973 " data-fill-palette-color="accent"></polygon><path fill="#e5261f" d="M85.172 46.86v12.076h3.464v-5.407h0.005c0.016-0.769 0.641-1.387 1.413-1.387s1.399 0.618 1.414 1.387h0.005v5.407h3.465V46.86H85.172z" data-fill-palette-color="accent"></path><polygon fill="#e5261f" points="14.829,46.021 5.062,46.021 5.062,43.973 9.833,42.292 14.829,43.973 " data-fill-palette-color="accent"></polygon><path fill="#e5261f" d="M5.062 46.86v12.076h3.466v-5.407h0.004c0.015-0.769 0.641-1.387 1.413-1.387 0.772 0 1.399 0.618 1.414 1.387h0.004v5.407h3.466V46.86H5.062z" data-fill-palette-color="accent"></path><path fill="#e5261f" d="M15.154 46.86v12.076h28.444V46.86H15.154zM18.725 57.229H16.97v-3.533h1.755V57.229zM18.725 52.112H16.97V48.58h1.755V52.112zM22.615 57.229H20.86v-3.533h1.755V57.229zM22.615 52.112H20.86V48.58h1.755V52.112zM26.506 57.229h-1.755v-3.533h1.755V57.229zM26.506 52.112h-1.755V48.58h1.755V52.112zM30.397 57.229h-1.755v-3.533h1.755V57.229zM30.397 52.112h-1.755V48.58h1.755V52.112zM34.288 57.229h-1.754v-3.533h1.754V57.229zM34.288 52.112h-1.754V48.58h1.754V52.112zM38.179 57.229h-1.755v-3.533h1.755V57.229zM38.179 52.112h-1.755V48.58h1.755V52.112zM42.07 57.229h-1.755v-3.533h1.755V57.229zM42.07 52.112h-1.755V48.58h1.755V52.112z" data-fill-palette-color="accent"></path><rect x="15.154" y="44.789" fill="#e5261f" width="28.444" height="1.232" data-fill-palette-color="accent"></rect><path fill="#e5261f" d="M56.401 46.86v12.076h28.444V46.86H56.401zM59.973 57.229h-1.755v-3.533h1.755V57.229zM59.973 52.112h-1.755V48.58h1.755V52.112zM63.863 57.229h-1.754v-3.533h1.754V57.229zM63.863 52.112h-1.754V48.58h1.754V52.112zM67.755 57.229H66v-3.533h1.755V57.229zM67.755 52.112H66V48.58h1.755V52.112zM71.646 57.229h-1.755v-3.533h1.755V57.229zM71.646 52.112h-1.755V48.58h1.755V52.112zM75.535 57.229h-1.753v-3.533h1.753V57.229zM75.535 52.112h-1.753V48.58h1.753V52.112zM79.428 57.229h-1.755v-3.533h1.755V57.229zM79.428 52.112h-1.755V48.58h1.755V52.112zM83.317 57.229h-1.754v-3.533h1.754V57.229zM83.317 52.112h-1.754V48.58h1.754V52.112z" data-fill-palette-color="accent"></path><rect x="56.401" y="44.789" fill="#e5261f" width="28.444" height="1.232" data-fill-palette-color="accent"></rect><path fill="#e5261f" d="M43.923 58.937h4.312v-6.73h0.005c0.019-0.956 0.798-1.725 1.759-1.725s1.741 0.769 1.759 1.725h0.006v6.73h4.312v-15.03H43.923V58.937zM50 45.738c0.655 0 1.187 0.531 1.187 1.186 0 0.656-0.532 1.188-1.187 1.188s-1.186-0.532-1.186-1.188C48.814 46.269 49.345 45.738 50 45.738z" data-fill-palette-color="accent"></path><polygon fill="#e5261f" points="49.859,38.221 43.923,40.312 43.923,42.861 56.077,42.861 56.077,40.312 " data-fill-palette-color="accent"></polygon><rect x="5.062" y="59.911" fill="#e5261f" width="89.875" height="1.868" data-fill-palette-color="accent"></rect></svg></g></svg></g><g><rect width="75.54431999999998" height="5.3383806988768026" y="53.537292215805664" x="319.97568" fill="#e5261f" data-fill-palette-color="accent"></rect><rect width="75.54431999999998" height="5.3383806988768026" y="53.537292215805664" x="0" fill="#e5261f" data-fill-palette-color="accent"></rect><rect width="75.54431999999998" height="5.3383806988768026" y="42.86053081805206" x="319.97568" fill="#e5261f" data-fill-palette-color="accent"></rect><rect width="75.54431999999998" height="5.3383806988768026" y="42.86053081805206" x="0" fill="#e5261f" data-fill-palette-color="accent"></rect></g></svg></g></svg></g></svg><rect width="395.52" height="133.04676127331695" fill="none" stroke="none" visibility="hidden"></rect></g></svg></g></svg>
